<svg xmlns="http://www.w3.org/2000/svg" viewBox="0 0 64 64">
  <circle cx="32" cy="32" r="31" fill="#1a1d24"/>
  <circle cx="32" cy="32" r="27.5" fill="none" stroke="#b8924a" stroke-width="0.9" opacity="0.95"/>
  <g fill="#fbf8f1">
    <path d="M 13.5 21 L 17 21 L 19.4 38 L 22.4 21 L 25.6 21 L 28.6 38 L 31 21 L 34.5 21 L 30 45.5 L 26.2 45.5 L 24 30 L 21.8 45.5 L 18 45.5 Z"/>
    <rect x="11.8" y="21" width="6.6" height="1.5"/>
    <rect x="19.9" y="21" width="5.5" height="1.5"/>
    <rect x="26.9" y="21" width="5.5" height="1.5"/>
    <rect x="33" y="21" width="3.3" height="1.5"/>
    <rect x="16.4" y="44.1" width="3.4" height="1.5"/>
    <rect x="25.8" y="44.1" width="3.4" height="1.5"/>
    <rect x="38" y="21" width="3.4" height="24.5"/>
    <rect x="51" y="21" width="3.4" height="24.5"/>
    <rect x="41.4" y="31.6" width="9.6" height="2.6"/>
    <rect x="36" y="21" width="7.4" height="1.5"/>
    <rect x="49" y="21" width="7.4" height="1.5"/>
    <rect x="36" y="44.1" width="7.4" height="1.5"/>
    <rect x="49" y="44.1" width="7.4" height="1.5"/>
  </g>
</svg>
